<?xml version="1.0" encoding="UTF-8" standalone="no"?>
<!-- Created with Inkscape (http://www.inkscape.org/) -->

<svg
   width="1080"
   height="1080"
   viewBox="0 0 1080 1080"
   version="1.1"
   id="svg1"
   xml:space="preserve"
   xmlns="http://www.w3.org/2000/svg"
   xmlns:svg="http://www.w3.org/2000/svg"><defs
     id="defs1"><filter
       style="color-interpolation-filters:sRGB"
       id="filter13"
       x="-0.080160261"
       y="-0.070658764"
       width="1.1603205"
       height="1.1413175"><feBlend
         in2="SourceGraphic"
         result="result5"
         mode="multiply"
         in="result10"
         id="feBlend1" /><feComposite
         in2="SourceGraphic"
         in="result5"
         result="fbSourceGraphic"
         operator="over"
         id="feComposite11" /><feGaussianBlur
         stdDeviation="3"
         result="result10"
         id="feGaussianBlur11" /><feGaussianBlur
         result="result9"
         stdDeviation="9"
         id="feGaussianBlur12" /><feSpecularLighting
         in="result9"
         result="result1"
         lighting-color="#ffffff"
         surfaceScale="1"
         specularConstant="2"
         specularExponent="60"
         id="feSpecularLighting12"><fePointLight
           x="-5000"
           y="-10000"
           z="20000"
           id="fePointLight12" /></feSpecularLighting><feComposite
         in2="fbSourceGraphic"
         in="result1"
         result="result2"
         operator="in"
         id="feComposite12" /><feGaussianBlur
         result="result9"
         stdDeviation="1"
         id="feGaussianBlur13" /><feComposite
         in="result9"
         result="result4"
         operator="arithmetic"
         k2="2"
         k3="0.8"
         in2="fbSourceGraphic"
         id="feComposite13"
         k1="0"
         k4="0" /><feBlend
         in="result4"
         mode="multiply"
         id="feBlend13" /></filter></defs><g
     id="layer1"
     transform="translate(-1090)"><path
       id="text1"
       style="font-size:192px;font-family:'Aestera - Personal use';-inkscape-font-specification:'Aestera - Personal use, Normal';text-align:center;letter-spacing:0.33px;word-spacing:0.13px;text-anchor:middle;opacity:0.994437;fill:#ffffff;stroke-width:49.0439;stroke-linecap:round;stroke-miterlimit:3;filter:url(#filter13)"
       d="m 316.46459,133.42924 c 0,0 58.24193,11.49836 61.14015,21.27992 1.07436,3.49169 2.38593,25.22049 1.61155,29.72042 -18.61442,108.16848 -1.14938,184.59166 89.90606,200.42018 97.98966,36.57172 54.45113,132.804 -4.62656,123.96445 l 1.56007,60.79582 C 635.33421,575.21551 653.39499,346.90065 467.04554,301.9717 446.03003,280.92955 437.58456,198.31019 468.59359,181.33348 520.469,152.93292 781.56861,215.32193 571.94766,553.12957 833.68772,302.09894 673.05674,112.9278 417.46819,130.42818 c -32.35039,2.21506 -66.3086,-0.39971 -101.0036,3.00106 z m 62.7517,222.1007 V 535.3437 c 0,4.56605 -0.53719,8.66204 -1.61155,12.28801 -2.15384,7.26926 -60.73966,21.06125 -60.56258,21.91371 0.39296,1.89174 51.5645,0.97289 60.11176,1.30457 4.47627,0.17361 62.07904,-1.28578 88.95082,-1.28578 8.35741,0 0.32407,-100.8647 1.30567,-159.0154 -32.08893,-10.80514 -60.59527,-31.64152 -88.19412,-55.01887 z"
       transform="matrix(1.4750288,0,0,1.4750288,876.15006,23.614658)" /></g></svg>
